<?xml version="1.0" encoding="utf-8"?>
<!-- Generator: Adobe Illustrator 21.0.0, SVG Export Plug-In . SVG Version: 6.00 Build 0)  -->
<svg version="1.1" id="Layer_1" xmlns="http://www.w3.org/2000/svg" xmlns:xlink="http://www.w3.org/1999/xlink" x="0px" y="0px"
	 viewBox="0 0 425.2 139.4" style="enable-background:new 0 0 425.2 139.4;" xml:space="preserve">
<style type="text/css">
	.st0{fill:#F2F2F2;}
	.st1{fill:url(#SVGID_1_);}
	.st2{fill:url(#SVGID_2_);}
	.st3{fill:url(#SVGID_3_);}
	.st4{fill:url(#SVGID_4_);}
	.st5{fill:url(#SVGID_5_);}
</style>
<g>
	<g>
		<path class="st0" d="M165.7,101.2c-1.3,0-13.8-0.4-13.8-8.4V8.9h37.4c20.7,0,40.1,6.8,40.1,31.7v28.8c0,24.9-19.5,31.8-40.1,31.8
			H165.7z M169.2,21.7v66.7h20.1c12.8,0,22.8-4.9,22.8-20.3V41.8c0-15.4-10.1-20.1-22.8-20.1H169.2z"/>
		<path class="st0" d="M306.2,45.4l11,33.9c3.1,9.7,5.4,17.4,8,21.3c0,0-4.3,1.4-7.2,1.4c-12.1,0-15.1-10.5-18.3-20.1l-2.2-6.8
			h-32.5l-2.2,6.8c-3.2,9.7-6.2,20.1-18.3,20.1c-3,0-7.2-1.4-7.2-1.4c2.6-3.9,4.9-11.6,8-21.3l11-33.9c8.6-26.6,23.1-38.2,25-39.5
			C283.1,7.2,297.6,18.8,306.2,45.4z M272.7,48.8l-4,13.4h25l-4-13.4c-3.2-10.8-8.5-21.8-8.5-21.8C279.1,30.2,275.9,37.9,272.7,48.8
			z"/>
		<path class="st0" d="M406.4,50.4c0-5.9,1.3-13.3,1.3-13.3L384.2,85c0,0-10.5,0-15.6-8.3l-18.2-38.8c0,0,1.2,6.6,1.2,12.5v52
			c0,0-17.3,0-17.3-8.4V8.9h11.1c0.5,0,8.8-0.3,12.4,7.6l21,45C387,44.1,395.9,26,404.1,8.9c4.4,0,19.6,0,19.6,8.4v85.2
			c0,0-17.3,0-17.3-8.4V50.4z"/>
	</g>
	<g>
		<radialGradient id="SVGID_1_" cx="69.4108" cy="123.334" r="48.9519" gradientUnits="userSpaceOnUse">
			<stop  offset="0" style="stop-color:#93C83D"/>
			<stop  offset="0.2876" style="stop-color:#8FC53D"/>
			<stop  offset="0.5441" style="stop-color:#85BB3E"/>
			<stop  offset="0.7879" style="stop-color:#72AA3F"/>
			<stop  offset="1" style="stop-color:#5C9641"/>
		</radialGradient>
		<path class="st1" d="M1.6,116.5c0-1.8,0.1-3.6,0-5.4c-0.1-1.1,0.4-1.3,1.4-1.2c5.5,0.4,10.2,2.3,14.2,6.1c1.5,1.4,3,2.9,4.5,4.3
			c4.7,4.3,9.7,4.2,14.3-0.2c2.8-2.7,5.5-5.6,8.9-7.5c8.7-4.7,19-3.3,26.6,3.4c1.9,1.7,3.5,3.6,5.5,5.1c4.5,3.5,9.1,3.1,13.1-0.8
			c1.6-1.6,3.2-3.2,4.9-4.7c9.1-7.8,21.8-7.6,30.8,0.4c2.1,1.9,3.9,4.1,6.2,5.7c1.3,0.9,2.6,1.6,4.2,1.7c1,0,1.2,0.5,1.2,1.4
			c0,3.7-0.1,7.4,0,11c0,1.1-0.4,1.3-1.4,1.2c-5.6-0.4-10.4-2.5-14.4-6.3c-1.9-1.8-3.7-3.6-5.8-5.2c-3.5-2.8-7.6-2.7-11.1-0.1
			c-2.7,2-4.9,4.6-7.4,6.7c-8,6.7-21.8,7-30.5-1.7c-1.8-1.8-3.6-3.7-5.8-5.2c-3.1-2.2-7.2-2.2-10.3,0c-2.4,1.7-4.2,3.9-6.4,5.8
			c-7.6,6.7-17.8,8-26.5,3.4c-3-1.6-5.4-4.1-7.9-6.4c-2.2-2.1-4.4-4.3-7.7-4.4c-0.8,0-0.6-0.6-0.6-1.1
			C1.5,120.3,1.6,118.4,1.6,116.5z"/>
		<linearGradient id="SVGID_2_" gradientUnits="userSpaceOnUse" x1="30.0172" y1="38.712" x2="107.2861" y2="38.712">
			<stop  offset="0" style="stop-color:#213B81"/>
			<stop  offset="1" style="stop-color:#1FC3F3"/>
		</linearGradient>
		<path class="st2" d="M107.2,37c-4.2-0.5-8.3-0.9-12.4-0.3c-1,0.1-1.3-0.3-1.6-1.2c-5.8-17.9-27.9-23.7-41.6-10.8
			C40.8,34.7,41,52.1,51.9,62c1.2,1.1,1.2,1.7,0.2,2.9c-2.2,2.5-4.1,5.2-6.4,7.7c-0.7,0.8-1.2,0.9-2,0.1c-10-8.8-14.5-19.9-13.5-33
			c0.7-9.3,4.6-17.4,11.3-24c8-7.9,17.7-11.8,28.9-11.4c18.2,0.5,33.9,14.4,36.9,32.3C107.3,36.6,107.2,36.7,107.2,37z"/>
		<linearGradient id="SVGID_3_" gradientUnits="userSpaceOnUse" x1="34.4285" y1="35.5426" x2="111.6974" y2="35.5426">
			<stop  offset="0" style="stop-color:#8D181A"/>
			<stop  offset="1" style="stop-color:#EC1C24"/>
		</linearGradient>
		<path class="st3" d="M111.6,33.8c-4.2-0.5-8.3-0.9-12.4-0.3c-1,0.1-1.3-0.3-1.6-1.2C91.8,14.4,69.6,8.7,55.9,21.5
			c-10.7,10-10.5,27.4,0.4,37.3c1.2,1.1,1.2,1.7,0.2,2.9c-2.2,2.5-4.1,5.2-6.4,7.7c-0.7,0.8-1.2,0.9-2,0.1
			c-10-8.8-14.5-19.9-13.5-33c0.7-9.3,4.6-17.4,11.3-24C53.9,4.6,63.5,0.7,74.8,1c18.2,0.5,33.9,14.4,36.9,32.3
			C111.7,33.4,111.7,33.6,111.6,33.8z"/>
		<linearGradient id="SVGID_4_" gradientUnits="userSpaceOnUse" x1="30.0172" y1="38.712" x2="107.2861" y2="38.712">
			<stop  offset="0" style="stop-color:#213B81"/>
			<stop  offset="1" style="stop-color:#1FC3F3"/>
		</linearGradient>
		<path class="st4" d="M107.2,37c-4.2-0.5-8.3-0.9-12.4-0.3c-1,0.1-1.3-0.3-1.6-1.2c-5.8-17.9-27.9-23.7-41.6-10.8
			C40.8,34.7,41,52.1,51.9,62c1.2,1.1,1.2,1.7,0.2,2.9c-2.2,2.5-4.1,5.2-6.4,7.7c-0.7,0.8-1.2,0.9-2,0.1c-10-8.8-14.5-19.9-13.5-33
			c0.7-9.3,4.6-17.4,11.3-24c8-7.9,17.7-11.8,28.9-11.4c18.2,0.5,33.9,14.4,36.9,32.3C107.3,36.6,107.2,36.7,107.2,37z"/>
		<path class="st0" d="M137.3,98.4c-5-4.3-8.6-9.3-12.5-14.1c-3.1-3.9-6.2-7.8-9.9-11.1c-8.6-7.6-22-7.6-30.6,0.1
			c-3.7,3.3-6.8,7.2-9.9,11.1C70,90,65.6,95.7,60,100.3c-7.7,6.2-16.6,8.5-26.5,7.8c-11.7-0.9-20.2-7.2-27.5-15.7
			c-4.5-5.3-4.5-5.3-4.5-12.2c0-4.7,0-9.4,0-14.4c2.3,2.1,4,4.2,5.7,6.4c3.6,4.4,7,9,10.8,13.3c3.6,4,7.7,7.4,13.1,8.6
			c9.1,2,17-0.4,23.5-7.1c4-4.2,7.4-8.8,11-13.4C70,67.9,74.8,62.6,81,58.9c6.8-4,14.2-5.4,22-4.8c11.4,0.8,19.9,6.8,27.1,15.1
			c2.3,2.6,4.3,5.4,6.5,8.1c0.4,0.4,0.7,0.9,0.7,1.5C137.3,85.2,137.3,91.6,137.3,98.4z"/>
		<linearGradient id="SVGID_5_" gradientUnits="userSpaceOnUse" x1="1.5528" y1="77.1056" x2="137.2758" y2="77.1056">
			<stop  offset="0" style="stop-color:#213B81"/>
			<stop  offset="1" style="stop-color:#1FC3F3"/>
		</linearGradient>
		<path class="st5" d="M137.3,94.4c-5-4.3-8.6-9.3-12.5-14.1c-3.1-3.9-6.2-7.8-9.9-11.1c-8.6-7.6-22-7.6-30.6,0.1
			c-3.7,3.3-6.8,7.2-9.9,11.1C70,86,65.6,91.8,60,96.3c-7.7,6.2-16.6,8.5-26.5,7.8C21.8,103.2,13.3,96.9,6,88.4
			c-4.5-5.3-4.5-5.3-4.5-12.2c0-4.7,0-9.4,0-14.4c2.3,2.1,4,4.2,5.7,6.4c3.6,4.4,7,9,10.8,13.3c3.6,4,7.7,7.4,13.1,8.6
			c9.1,2,17-0.4,23.5-7.1c4-4.2,7.4-8.8,11-13.4C70,63.9,74.8,58.6,81,54.9c6.8-4,14.2-5.4,22-4.8c11.4,0.8,19.9,6.8,27.1,15.1
			c2.3,2.6,4.3,5.4,6.5,8.1c0.4,0.4,0.7,0.9,0.7,1.5C137.3,81.2,137.3,87.6,137.3,94.4z"/>
	</g>
	<g>
		<path class="st0" d="M157.1,119.5v8.6c0,4.7,2.9,6.2,6.8,6.2c3.8,0,8.4-0.8,9.6-4.7c3.6,6.3-3.1,8.8-9.6,8.8
			c-6.3,0-12.1-2.5-12.1-9.7V119c0-7.2,5.8-9.7,12.1-9.7c6.5,0,13.6,2.2,9.6,8.8c-1-3.6-5.8-4.7-9.6-4.7
			C160,113.4,157.1,114.8,157.1,119.5z"/>
		<path class="st0" d="M197.2,131.5c0,4.3-3,6.9-9.5,6.9s-9.5-2.6-9.5-6.9v-7.4c0-4.3,3-6.9,9.5-6.9s9.5,2.6,9.5,6.9V131.5z
			 M192.1,124.7c0-2.4-0.7-3.8-4.4-3.8s-4.4,1.4-4.4,3.8v6.2c0,2.4,0.7,3.8,4.4,3.8s4.4-1.4,4.4-3.8V124.7z"/>
		<path class="st0" d="M214.2,124.2c0-2.1-1-3.3-3.8-3.3c-2,0-3.7,0.6-3.7,0.6v16.7c0,0-5.1,0-5.1-2.6v-18.5c0,0,1.5,0.8,3.5,0.8
			c1.9,0,3.7-0.8,5.9-0.8c4.1,0,8.3,1.4,8.3,6.5v14.5c0,0-5.1-0.1-5.1-2.6V124.2z"/>
		<path class="st0" d="M224.1,113.8c1,0,5.1,0,5.1,3.3v1.4h8c0,0,0,3.9-2.9,3.9h-5.1v7.9c0,2.6,0.7,4.2,3.7,4.2c2.3,0,4.6-1,4.6-4.1
			c1.1,1.2,1.7,2.3,1.7,3.5c0,2.4-2.3,4.5-7,4.5c-5.2,0-8.1-2.6-8.1-6.9V113.8z"/>
		<path class="st0" d="M241.6,135.6v-18.4c1.2,0.6,2.2,0.8,3,0.8c1.7,0,3.5-0.8,5.8-0.8c2.8,0,5.3,1,5.3,3.7c0,1.9-1.5,3.4-1.8,3.9
			c0-2.5-2-3.6-4.3-3.6c-1.3,0-2.5,0.4-3,0.4v16.6C246.7,138.2,241.6,138.2,241.6,135.6z"/>
		<path class="st0" d="M275.9,131.5c0,4.3-3,6.9-9.5,6.9c-6.5,0-9.5-2.6-9.5-6.9v-7.4c0-4.3,3-6.9,9.5-6.9c6.5,0,9.5,2.6,9.5,6.9
			V131.5z M270.7,124.7c0-2.4-0.7-3.8-4.4-3.8s-4.4,1.4-4.4,3.8v6.2c0,2.4,0.7,3.8,4.4,3.8s4.4-1.4,4.4-3.8V124.7z"/>
		<path class="st0" d="M280,107.8c0.3,0,5.1,0,5.1,2.6v20.4c0,2.1,0,5.9,2.8,5.9c-1.1,1.4-2.3,1.6-3.3,1.6c-3.2,0-4.6-2.9-4.6-6.2
			V107.8z"/>
		<path class="st0" d="M306.3,119.5v8.6c0,4.7,2.9,6.2,6.8,6.2c3.8,0,8.4-0.8,9.6-4.7c3.6,6.3-3.1,8.8-9.6,8.8
			c-6.3,0-12.1-2.5-12.1-9.7V119c0-7.2,5.8-9.7,12.1-9.7c6.5,0,13.6,2.2,9.6,8.8c-1-3.6-5.8-4.7-9.6-4.7
			C309.2,113.4,306.3,114.8,306.3,119.5z"/>
		<path class="st0" d="M327.5,131.5v-7.4c0-4.3,3.1-6.9,8.7-6.9s8.3,2.6,8.3,6.5c0,3.3-2,6.5-8.2,6.5c-1.3,0-2.5-0.2-3.7-0.7v1.4
			c0,2.4,1.4,3.6,4.4,3.6c3.9,0,6.5-1.7,6.6-4c0.8,1.2,1.2,2.2,1.2,3.2c0,2.8-3.3,4.7-7.8,4.7C331,138.4,327.5,135.8,327.5,131.5z
			 M332.6,125.8c0.4,0.1,1.8,0.4,3,0.4c2.8,0,3.8-0.9,3.8-2.5c0-1.7-0.9-2.8-3.3-2.8c-2.7,0-3.4,1.4-3.4,3.8V125.8z"/>
		<path class="st0" d="M361.3,124.2c0-2.1-1-3.3-3.8-3.3c-2,0-3.7,0.6-3.7,0.6v16.7c0,0-5.1,0-5.1-2.6v-18.5c0,0,1.5,0.8,3.5,0.8
			c1.9,0,3.7-0.8,5.9-0.8c4.1,0,8.4,1.4,8.4,6.5v14.5c0,0-5.1-0.1-5.1-2.6V124.2z"/>
		<path class="st0" d="M371.2,113.8c1,0,5.1,0,5.1,3.3v1.4h8c0,0,0,3.9-2.9,3.9h-5.1v7.9c0,2.6,0.7,4.2,3.7,4.2c2.3,0,4.6-1,4.6-4.1
			c1.1,1.2,1.7,2.3,1.7,3.5c0,2.4-2.3,4.5-7,4.5c-5.2,0-8.1-2.6-8.1-6.9V113.8z"/>
		<path class="st0" d="M388.3,131.5v-7.4c0-4.3,3.1-6.9,8.7-6.9c5.6,0,8.3,2.6,8.3,6.5c0,3.3-2,6.5-8.2,6.5c-1.3,0-2.5-0.2-3.7-0.7
			v1.4c0,2.4,1.4,3.6,4.4,3.6c3.9,0,6.5-1.7,6.6-4c0.8,1.2,1.2,2.2,1.2,3.2c0,2.8-3.3,4.7-7.8,4.7
			C391.8,138.4,388.3,135.8,388.3,131.5z M393.4,125.8c0.4,0.1,1.8,0.4,3,0.4c2.8,0,3.8-0.9,3.8-2.5c0-1.7-0.9-2.8-3.3-2.8
			c-2.7,0-3.4,1.4-3.4,3.8V125.8z"/>
		<path class="st0" d="M409.5,135.6v-18.4c1.2,0.6,2.2,0.8,3,0.8c1.7,0,3.5-0.8,5.8-0.8c2.8,0,5.3,1,5.3,3.7c0,1.9-1.5,3.4-1.8,3.9
			c0-2.5-2-3.6-4.3-3.6c-1.3,0-2.5,0.4-3,0.4v16.6C414.7,138.2,409.5,138.2,409.5,135.6z"/>
	</g>
</g>
</svg>
